<?xml version="1.0" standalone="no"?>
<!DOCTYPE svg PUBLIC "-//W3C//DTD SVG 20010904//EN"
 "http://www.w3.org/TR/2001/REC-SVG-20010904/DTD/svg10.dtd">
<svg version="1.0" xmlns="http://www.w3.org/2000/svg"
 width="260.000000pt" height="260.000000pt" viewBox="0 0 260.000000 260.000000"
 preserveAspectRatio="xMidYMid meet">
<metadata>
Created by potrace 1.14, written by Peter Selinger 2001-2017
</metadata>
<g transform="translate(0.000000,260.000000) scale(0.100000,-0.100000)"
fill="#000000" stroke="none">
<path d="M0 1300 l0 -1300 1300 0 1300 0 0 1300 0 1300 -1300 0 -1300 0 0
-1300z m1142 1175 c40 -7 97 -23 126 -35 29 -11 95 -31 147 -45 63 -16 136
-46 227 -93 73 -39 144 -73 158 -77 33 -10 302 -254 339 -308 15 -23 44 -73
64 -112 19 -38 42 -84 51 -101 9 -17 25 -66 36 -110 27 -108 30 -508 4 -576
-63 -162 -174 -344 -268 -437 -48 -47 -125 -105 -272 -205 -28 -19 -98 -58
-155 -87 -94 -47 -113 -53 -196 -60 -51 -4 -110 -13 -130 -18 -21 -6 -113 -11
-206 -11 -138 0 -182 4 -248 21 -94 24 -179 60 -198 83 -8 9 -29 24 -49 33
-36 17 -72 65 -72 97 0 10 15 33 34 52 26 26 42 34 70 34 20 0 62 9 94 21 31
11 84 29 117 39 35 11 85 39 119 64 31 25 66 48 76 51 21 7 136 138 186 214
18 25 46 61 64 79 18 18 39 52 47 75 8 23 18 46 23 52 5 6 22 48 39 95 46 125
44 224 -10 510 -39 204 -161 387 -340 508 -128 87 -132 173 -11 236 58 30 46
29 134 11z"/>
</g>
</svg>
